# xmcd
#
# Track frame offsets: 
#        150
#        12358
#        33258
#        48415
#        62634
#        75542
#        87396
#        101153
#        116348
#        130615
#        146743
#        157363
#        171840
#        185765
#
# Disc length: 2754 seconds
#
# Revision: 0
# Processed by: cddbd v1.4PL0 Copyright (c) Steve Scherf et al.
# Submitted via: ExactAudioCopy v0.90b4
#
DISCID=be0ac00e
DTITLE=Tina Parkhurst - Tina Parkhurst
DYEAR=2003
DGENRE=Country
TTITLE0=I ain't bitter
TTITLE1=I'll light a candle
TTITLE2=Last train
TTITLE3=The best mom a dad could ever be
TTITLE4=Go ahead and keep the key
TTITLE5=You sure picked a good day to love me
TTITLE6=Standin' on my heart
TTITLE7=Party of one
TTITLE8=You don't say
TTITLE9=What am I supposed to do?
TTITLE10=I don't need flowers
TTITLE11=Let's stay home tonight
TTITLE12=When did I 'I do'?
TTITLE13=Nostalgia
EXTD=
EXTT0=
EXTT1=
EXTT2=
EXTT3=
EXTT4=
EXTT5=
EXTT6=
EXTT7=
EXTT8=
EXTT9=
EXTT10=
EXTT11=
EXTT12=
EXTT13=
PLAYORDER=
